<svg xmlns="http://www.w3.org/2000/svg" width="22" height="18" viewBox="0 0 22 18">
    <g fill="#E5E5E5" fill-rule="evenodd">
        <path d="M21.008 7.202h-2.901V4.309a.4.4 0 0 0-.4-.4h-.827a.401.401 0 0 0-.402.4v2.893h-2.901c-.22 0-.401.18-.401.4v.825c0 .22.18.4.401.4h2.901v2.894c0 .22.18.4.402.4h.826a.4.4 0 0 0 .4-.4V8.826h2.902c.22 0 .401-.179.401-.4v-.824c0-.22-.18-.4-.401-.4zM9.259 9.738c-.61-.43-1.165-1.063-1.175-1.257 0-.353.032-.522.827-1.14 1.028-.803 1.594-1.858 1.594-2.973 0-1.011-.31-1.91-.837-2.54h.41a.4.4 0 0 0 .235-.076l1.14-.824a.397.397 0 0 0 .148-.447.402.402 0 0 0-.382-.278H6.115c-.558 0-1.125.099-1.682.29-1.86.64-3.16 2.22-3.16 3.843 0 2.298 1.785 4.04 4.172 4.096a2.16 2.16 0 0 0-.07.537c0 .355.09.69.275 1.014h-.066c-2.275 0-4.329 1.114-5.109 2.77A3.032 3.032 0 0 0 .17 14.05c0 .419.108.821.319 1.2.49.873 1.542 1.552 2.965 1.91.734.185 1.523.28 2.342.28.736 0 1.438-.096 2.086-.283 2.023-.586 3.331-2.07 3.331-3.785 0-1.645-.53-2.63-1.953-3.634zm-6.446 3.766c0-1.197 1.524-2.246 3.261-2.246h.047c.378.004.747.06 1.095.166l.345.235c.804.547 1.336.908 1.484 1.487.035.146.052.292.052.434 0 1.49-1.114 2.245-3.313 2.245-1.666 0-2.971-1.02-2.971-2.321zm1.58-11.307c.272-.309.628-.472 1.027-.472h.045c1.129.034 2.208 1.287 2.406 2.795.112.844-.076 1.638-.502 2.122-.272.31-.623.473-1.038.473h-.019C5.207 7.081 4.104 5.78 3.907 4.274c-.111-.842.067-1.599.487-2.077z"/>
    </g>
</svg>
