<svg xmlns="http://www.w3.org/2000/svg" width="20" height="20" viewBox="0 0 20 20">
    <g fill="#E5E5E5" fill-rule="evenodd">
        <path d="M10.08 4.856c-2.8 0-5.12 2.186-5.12 4.909s2.28 4.909 5.12 4.909c2.84 0 5.12-2.225 5.12-4.91 0-2.684-2.32-4.908-5.12-4.908zm0 8.053c-1.8 0-3.28-1.419-3.28-3.144 0-1.726 1.48-3.145 3.28-3.145 1.8 0 3.28 1.419 3.28 3.145 0 1.725-1.48 3.144-3.28 3.144zm5.32-7.056c-.64 0-1.16-.498-1.16-1.112 0-.614.52-1.112 1.16-1.112.64 0 1.16.498 1.16 1.112 0 .614-.52 1.112-1.16 1.112z"/>
        <path d="M18.4 1.864C17.36.83 15.88.292 14.2.292H5.96c-3.48 0-5.8 2.224-5.8 5.56v7.863c0 1.649.56 3.068 1.68 4.103 1.08.997 2.52 1.496 4.16 1.496h8.16c1.72 0 3.16-.537 4.2-1.496 1.08-.997 1.64-2.416 1.64-4.065v-7.9c0-1.61-.56-2.991-1.6-3.989zm-.24 11.89c0 1.188-.36 2.147-1.08 2.799-.72.652-1.72.997-2.92.997H6c-1.2 0-2.2-.345-2.92-.997-.72-.69-1.08-1.65-1.08-2.838V5.853c0-1.15.36-2.11 1.08-2.8.68-.652 1.72-.997 2.92-.997h8.24c1.2 0 2.2.345 2.92 1.036.68.69 1.08 1.649 1.08 2.76v7.901h-.08z"/>
    </g>
</svg>
