<svg xmlns="http://www.w3.org/2000/svg" width="20" height="18" viewBox="0 0 20 18">
    <path fill="#E5E5E5" fill-rule="evenodd" d="M20 2.858a8.167 8.167 0 0 1-2.356.643 4.106 4.106 0 0 0 1.805-2.26 8.235 8.235 0 0 1-2.606.99 4.108 4.108 0 0 0-2.996-1.29 4.095 4.095 0 0 0-3.997 5.02 11.665 11.665 0 0 1-8.458-4.272 4.085 4.085 0 0 0 1.27 5.459 4.102 4.102 0 0 1-1.858-.511v.05a4.095 4.095 0 0 0 3.29 4.01 4.144 4.144 0 0 1-1.851.07 4.106 4.106 0 0 0 3.832 2.84 8.25 8.25 0 0 1-5.095 1.75c-.332 0-.659-.019-.98-.057a11.654 11.654 0 0 0 6.29 1.836c7.547 0 11.675-6.23 11.675-11.632 0-.177-.005-.354-.012-.53A8.307 8.307 0 0 0 20 2.858z"/>
</svg>
