<svg xmlns="http://www.w3.org/2000/svg" width="20" height="15" viewBox="0 0 20 15">
    <path fill="#E5E5E5" fill-rule="evenodd" d="M19.8 3.889s-.195-1.349-.795-1.943c-.76-.78-1.613-.783-2.004-.829C14.203.92 10.004.92 10.004.92h-.008s-4.198 0-6.997.198c-.391.046-1.243.05-2.004.829C.395 2.54.2 3.889.2 3.889S0 5.472 0 7.056v1.485c0 1.584.2 3.168.2 3.168s.195 1.348.795 1.942c.76.78 1.76.755 2.205.837 1.6.15 6.8.197 6.8.197s4.203-.007 7.001-.205c.391-.045 1.244-.049 2.004-.829.6-.594.795-1.942.795-1.942s.2-1.584.2-3.168V7.056c0-1.584-.2-3.167-.2-3.167zM7.935 10.34V4.841l5.403 2.76-5.403 2.74z"/>
</svg>
